<?xml version="1.0" encoding="UTF-8" standalone="no"?>
<svg
   width="580.47394"
   height="580.47406"
   version="1.0"
   viewBox="0 0 435.35537 435.3564"
   id="svg5"
   xmlns="http://www.w3.org/2000/svg"
   xmlns:svg="http://www.w3.org/2000/svg">
  <defs
     id="defs5" />
  <g
     id="g9"
     transform="translate(-356.11934,472.37556)">
    <rect
       style="opacity:0;fill:#000000;stroke-width:35.9476"
       id="rect8"
       width="435.35635"
       height="435.35635"
       x="356.1181"
       y="-472.37555"
       ry="5.5521088" />
    <g
       id="g8"
       transform="translate(259.23821,53.08589)">
      <path
         d="m 228.63002,-488.44096 c 7,0.9 22.3,5.7 29.2,9.2 38.5,19.5 59.4,65.5 48.7,107.3 -4.3,16.8 -16.8,37.2 -29.2,47.6 -6,5.1 -14.9,11.3 -15.3,10.7 -0.2,-0.1 -3.9,-11 -8.2,-24.1 l -7.9,-23.7 h -47.5 v 57.8 l -5.7,-1.8 c -13.7,-4.2 -25.8,-11.5 -36.6,-21.9 -33,-31.7 -38.5,-81.6 -13.2,-119.7 3.1,-4.5 8.1,-10.9 11.3,-14.1 8,-8.2 22.1,-18.1 30.6,-21.5 4.3,-1.7 5.7,-2.6 3.6,-2.2 -5.7,1.1 -23.4,8.3 -29.7,12.1 -30.7,18.4 -52,48.8 -59.899999,85.5 -2.6,11.9 -2.6,41 0,52.7 8.299999,38.1 29.899999,68.2 62.099999,86.8 8.8,5.1 23.1,10.8 31.3,12.4 l 6.2,1.3 v 107.6 h 224 v -81.5 l 25.5,-10.9 c 14,-5.9 25.5,-11.3 25.5,-11.9 0,-0.6 -2.3,-3.5 -5.2,-6.4 -4.8,-4.8 -5,-5.4 -3.6,-7 15.5,-18.2 38.6,-46.2 39.1,-47.6 0.5,-1.4 0,-1.7 -3.6,-1.7 -5.9,-0.1 -129.4,4.9 -139.2,5.6 l -8.1,0.5 -20.5,61.7 -20.5,61.6 -14,-42.2 c -7.7,-23.2 -13.6,-42.2 -13.1,-42.2 2.3,0 17.1,-11.4 25.3,-19.5 18.5,-18.4 29.7,-39 35.5,-65.6 3.3,-14.6 3.3,-39.7 0.1,-54.6 -5.6,-25.9 -17.1,-47.2 -35.3,-65.4 -22,-22 -49,-34.3 -77.4,-35.4 -9.4,-0.3 -10,-0.3 -4.3,0.5 z m 42.8,208.5 c 5.6,16.7 9.9,30.9 9.6,31.4 -0.3,0.5 -4.9,2.7 -10.1,5 -18.3,8.1 -39.7,11.7 -58.4,10 -5.2,-0.5 -10.2,-1.1 -11.3,-1.4 -1.7,-0.6 -1.8,-2.4 -1.8,-33.4 v -32.8 l 14.3,0.5 c 16.8,0.5 26.6,-1 39.2,-6.3 4.4,-1.8 8.1,-3.4 8.2,-3.4 0.1,-0.1 4.7,13.6 10.3,30.4 z"
         fill="#aea54f"
         id="path6"
         style="fill:#ffffff" />
      <path
         d="m 376.03002,-359.74096 c -0.3,1 -4.6,15 -9.6,31.2 -5,16.1 -8.9,29.6 -8.5,29.9 0.3,0.3 13.7,0 29.8,-0.6 16.1,-0.7 30.4,-1.2 32,-1.2 h 2.7 v -61 h -22.9 c -21,0 -23,0.1 -23.5,1.7 z"
         fill="#cc0000"
         id="path7"
         style="fill:#ffffff" />
      <path
         d="m 430.23002,-331.24096 c 0.2,16.7 0.5,30.4 0.5,30.5 0.1,0 17.9,-0.4 39.5,-1.1 28.6,-1 39.6,-1.6 40.1,-2.5 0.5,-0.7 2,-6.7 3.6,-13.4 2.4,-10.6 3.7,-14.1 10.4,-26.7 4.2,-8 7.7,-15.1 7.9,-15.8 0.3,-0.9 -10.4,-1.2 -51,-1.2 h -51.3 z"
         fill="#27ae60"
         id="path8"
         style="fill:#ffffff" />
    </g>
  </g>
</svg>
